<svg version="1.1" id="Layer_1" xmlns="http://www.w3.org/2000/svg" x="0" y="0" viewBox="0 0 528.1 528.1" xml:space="preserve"><style></style><path d="M374.9 0H153.2c-121.8 276.6 75.7 345.5 99.3 354.4v154.4h-72.7c-10.6 0-19.2 8.6-19.2 19.2h207.2c0-10.6-8.6-19.2-19.2-19.2h-73.5V354.7c20.6-8 222.7-75.7 99.8-354.7z" opacity=".5" fill="#a2caed"/><path d="M364.9 220.9c-14.7 0-14.7-5.9-29.4-5.9s-14.7 5.9-29.4 5.9-14.7-5.9-29.4-5.9-14.7 5.9-29.4 5.9-14.7-5.9-29.4-5.9-14.7 5.9-29.4 5.9-14.7-5.9-29.4-5.9c-10.6 0-13.6 3.1-19.9 4.8 4.7 16.9 12 33.3 22.6 48.6 23.8 34.8 70.3 75.2 115.9 67.5 28.8-4.9 60.6-31.7 79.4-53.6 17.4-20.4 28.3-43.2 34.2-67.1-11.8.7-12.8 5.7-26.4 5.7z" fill="#91293b" opacity=".8"/></svg>