<svg enable-background="new 0 0 242.7 381.6" viewBox="0 0 242.7 381.6" xmlns="http://www.w3.org/2000/svg"><path d="m208.6 0h-87.3-87.2s-42.8 198.5-32.5 282.3 80.4 99.3 80.4 99.3h39.4 39.4s70.2-15.4 80.4-99.2c10.2-83.9-32.6-282.4-32.6-282.4z" fill="#fff" opacity=".25"/><path d="m211 176.7c-14.7 0-14.7 5.9-29.4 5.9s-14.7-5.9-29.4-5.9-14.7 5.9-29.4 5.9-14.7-5.9-29.4-5.9-14.7 5.9-29.4 5.9-14.7-5.9-29.4-5.9c-7.1 0-10.7 1.4-14.3 2.8-4.3 37-6.5 73.1-3.5 97.8 14.4 117.9 196.7 119.3 211.3 0 3-24.8.8-61-3.5-98.1-3.3-1.3-7-2.5-13.6-2.5z" fill="#91293b" opacity=".3"/></svg>