<svg enable-background="new 0 0 233.5 655.8" viewBox="0 0 233.5 655.8" xmlns="http://www.w3.org/2000/svg"><path d="m224.6 97.8c-1.8-9.7-18.4-97.8-24.5-97.8 0 0-.3 0-.8 0-7.8 0-67.4 0-80.8 0 0 0-.3 0-.8 0-.4 0-1 0-1.8 0-.3 0-.5 0-.8 0-16 0-80.8 0-80.8 0-.5 0-.8 0-.8 0-6.2 0-22.8 88.1-24.5 97.8-4.9 27-9.3 57.7-8.9 87.6-.3 32.6 4.7 64.6 20.7 88.7 1 1.6 2.1 3.1 3.2 4.7 18.9 33.2 47.9 63 81.5 79.4v278.3h-51.2c-10.6 0-19.2 8.6-19.2 19.2h164.1c0-10.6-8.6-19.2-19.2-19.2h-52v-278.3c33.6-16.4 62.6-46.2 81.4-79.3 1.1-1.6 2.2-3.2 3.2-4.7 16.1-24.1 21-56.1 20.8-88.7.4-30-3.9-60.7-8.8-87.7z" fill="#fff" opacity=".25"/><path d="m200 189.2c-14.4 0-14.4 5.8-28.8 5.8s-14.4-5.8-28.8-5.8-14.4 5.8-28.8 5.8-14.4-5.8-28.8-5.8-14.4 5.8-28.8 5.8-14.4-5.8-28.8-5.8c-5.1 0-8.5.7-11.2 1.7 0 27.3 4.5 54 18 74.3.9 1.3 1.8 2.7 2.8 4.1 16.8 29.5 50 73.2 88.7 67.6 30.1-4.4 57.7-43 71.7-67.6 1-1.4 1.9-2.7 2.8-4.1 13.1-19.7 17.7-45.4 18-71.8-5.4-1.7-8.7-4.2-18-4.2z" fill="#91293b" opacity=".3"/></svg>