<svg enable-background="new 0 0 154.1 579" viewBox="0 0 154.1 579" xmlns="http://www.w3.org/2000/svg"><path d="m117.3 559.7h-30.7v-228.3c20.6-15.1 105.9-87.3 47.3-331.4h-113.7c-58 241.8 25.2 315 46.7 331v228.7h-30.1c-10.7 0-19.4 8.7-19.4 19.4h119.2c.1-10.8-8.6-19.4-19.3-19.4z" fill="#fff" opacity=".25"/><path d="m130.8 69.9c-13.3 0-13.3 5.3-26.5 5.3-13.3 0-13.3-5.3-26.5-5.3-13.3 0-13.3 5.3-26.5 5.3-12.6 0-13.2-4.8-24.6-5.3-13.2 66.2-21.4 157.4 22 215.3 8.1 10.8 20.2 20.5 33.5 18.9 13-1.6 22.1-13.2 28.7-24.5 19.3-33.2 27.3-70 27.6-108-.1-9.2-6.6-101.7-7.7-101.7z" fill="#91293b" opacity=".3"/></svg>