<svg enable-background="new 0 0 300.5 646.3" viewBox="0 0 300.5 646.3" xmlns="http://www.w3.org/2000/svg"><path d="m261.1 0h-221.7c-121.8 276.6 75.7 345.5 99.3 354.4v272.7h-57.8c-10.6 0-19.2 8.6-19.2 19.2h177.2c0-10.6-8.6-19.2-19.2-19.2h-58.5v-272.4c20.7-8 222.8-75.7 99.9-354.7z" fill="#fff" opacity=".25"/><path d="m251.1 220.9c-14.7 0-14.7-5.9-29.4-5.9s-14.7 5.9-29.4 5.9-14.7-5.9-29.4-5.9-14.7 5.9-29.4 5.9-14.7-5.9-29.4-5.9-14.7 5.9-29.4 5.9-14.7-5.9-29.4-5.9c-10.6 0-13.6 3.1-19.9 4.8 4.7 16.9 12 33.3 22.6 48.6 23.8 34.8 70.3 75.2 115.9 67.5 28.8-4.9 60.6-31.7 79.4-53.6 17.4-20.4 28.3-43.2 34.2-67.1-11.7.7-12.8 5.7-26.4 5.7z" fill="#91293b" opacity=".3"/></svg>