<svg enable-background="new 0 0 253.6 652.4" viewBox="0 0 253.6 652.4" xmlns="http://www.w3.org/2000/svg"><path d="m146.4 419.6c15.7-33.7 66.1-56 98.1-176.5 32.1-120.6-31-243.1-31-243.1h-173.4s-63.1 122.5-31 243.1c32.1 120.5 82.5 142.9 98.2 176.5 8.3 17.7 9.5 26.9 9.5 47.9v165.8h-49.4c-10.6 0-19.2 8.6-19.2 19.2h157.1c0-10.6-8.6-19.2-19.2-19.2h-49.9v-162.9c.1-27.9 1.3-31.6 10.2-50.8z" fill="#fff" opacity=".25"/><path d="m236.9 162.6c-14.7 0-14.7 5.9-29.4 5.9s-14.7-5.9-29.4-5.9-14.7 5.9-29.4 5.9-14.7-5.9-29.4-5.9-14.7 5.9-29.4 5.9-14.7-5.9-29.4-5.9-14.7 5.9-29.4 5.9c-7.8 0-11.4-1.6-15.3-3.2-.3 11.6 0 23.1 1 34.7 3.8 45 18.2 89.4 44.4 126.2 13.5 19.1 26.7 39.7 42.1 57.3 11.1 12.6 29 18.8 42.9 6.7 14.2-12.4 24.5-28.7 34-44.7 9.3-15.7 20.5-30.4 29-46.7 21.7-41.9 30.5-88.9 28.7-136.1-.4-.1-.7-.1-1-.1z" fill="#91293b" opacity=".3"/></svg>