<svg enable-background="new 0 0 263.7 700.7" viewBox="0 0 263.7 700.7" xmlns="http://www.w3.org/2000/svg"><path d="m251.3 105.9c-1.8-9.8-18.5-105.9-22-105.9 0 0-63.7 0-91.2 0 0 0-4.9 0-12.5 0-27.6 0-91.2 0-91.2 0-3.5 0-20.2 96.1-22 105.9-7.3 39.2-12.8 78.9-12.4 118.8.3 36 4.1 76.4 19.8 109.3 15.3 32.2 44.2 56.6 71.3 78.6.7.6 17.6 11 30.2 17.1v251.7h-51.3c-10.6 0-19.2 8.6-19.2 19.2h164.1c0-10.6-8.6-19.2-19.2-19.2h-52v-252.3c12.4-6.2 28.1-15.9 28.9-16.5 27.1-22.1 55.9-46.4 71.3-78.6 15.7-32.9 19.4-73.4 19.8-109.3.3-39.9-5.2-79.6-12.4-118.8z" fill="#fff" opacity=".25"/><path d="m239.3 266.9c-14.7 0-14.7-5.9-29.4-5.9s-14.7 5.9-29.4 5.9-14.7-5.9-29.4-5.9-14.7 5.9-29.4 5.9-14.7-5.9-29.4-5.9-14.7 5.9-29.4 5.9-14.7-5.9-29.4-5.9c-8.1 0-11.8 1.8-15.9 3.4 2.5 18.7 6.9 37.1 14.7 53.5 16.4 34.6 48.7 77.6 90.9 82.2 48.3 5.2 88.1-43.1 106.7-82.2 7.5-15.7 11.9-33.4 14.4-51.3-1.5.2-3.2.3-5 .3z" fill="#91293b" opacity=".3"/></svg>