<svg enable-background="new 0 0 209.9 635.3" viewBox="0 0 209.9 635.3" xmlns="http://www.w3.org/2000/svg"><path d="m208.1 222.2c0-.2-.1-.4-.1-.6-6.9-52-22.8-100.6-23.8-153.6-.5-22.6-.4-45.3.7-67.9 0 0-67.8 0-77.2 0-.7 0-5.4 0-5.4 0-9.4 0-77.2 0-77.2 0 2.9 58.2-.1 114.3-13.3 171.2-7.5 32.7-14.8 66.2-10.5 99.4 6 45.9 33 64.2 66.3 90.3 8.5 6.6 13.9 16.8 18.1 26.5 4.8 11 8.1 20.7 8 32.7v15.7 47.3 116.9 15.5.5h-44.7c-10.6 0-19.2 8.6-19.2 19.2h151.1c0-10.6-8.6-19.2-19.2-19.2h-45.5c0-10.8 0-21.6 0-32.4 0-24.9 0 3.1 0-21.8 0-27.8 0-55.5 0-83.3 0-19.7.4-39.5 0-59.2 1.2-12.1 3.5-21.3 7.8-31.3 4.2-9.9 9.7-20.3 18.3-27 23.2-18.1 45.4-28.8 57.4-57.4 10.8-25.5 12-54.5 8.4-81.5z" fill="#fff" opacity=".25"/><path d="m191.8 225.4c-2.1-16.1-5.3-31.9-8.5-47.6-2.3-.6-5.1-1-8.9-1-14.1 0-14.1 5.6-28.2 5.6s-14.1-5.6-28.2-5.6-14.1 5.6-28.2 5.6-14.1-5.6-28.2-5.6-14.1 5.6-28.2 5.6c-3 0-5.3-.3-7.3-.6-.1.4-.2.8-.3 1.2-6.4 27.6-12.6 55.9-8.9 84 11 85 132.5 111.6 167.7 27.8 9-21.5 10-46 7-68.9.3-.1.3-.3.2-.5z" fill="#91293b" opacity=".3"/></svg>