<svg enable-background="new 0 0 282.1 693.6" viewBox="0 0 282.1 693.6" xmlns="http://www.w3.org/2000/svg"><path d="m273.1 112.4c-2.2-11.2-22.6-112.4-30.1-112.4-.1 0-82.8 0-100.3 0 0 0-1.2 0-3.3 0-17.5 0-100.2 0-100.3 0-7.5 0-27.9 101.2-30 112.4-7.8 40-12 81.5-6.7 122.1 5.2 40 20.3 78.1 46.4 109.1 20.4 24.3 51.8 54.7 82.3 69.1v261.7h-51.3c-10.6 0-19.2 8.6-19.2 19.2h164.1c0-10.6-8.6-19.2-19.2-19.2h-52v-263c29.7-14.8 59.9-44.3 79.8-67.9 26.1-31.1 41.2-69.1 46.4-109.1 5.4-40.6 1.2-82-6.6-122z" fill="#fff" opacity=".25"/><path d="m262.3 186.1c-14.7 0-14.7 5.9-29.4 5.9s-14.7-5.9-29.4-5.9-14.7 5.9-29.4 5.9-14.7-5.9-29.4-5.9-14.7 5.9-29.4 5.9-14.7-5.9-29.4-5.9-14.7 5.9-29.4 5.9-14.7-5.9-29.4-5.9c-5.6 0-9 .8-12 1.9-.5 14.8-.1 29.7 1.9 44.4 4.6 35.3 17.9 68.8 40.9 96.2 18.2 21.7 42.8 52.9 73.4 58.7 39.6 7.5 67.1-32.2 89.4-58.7 23-27.4 36.3-61 41-96.3 2-15.4 2.5-30.8 1.8-46.3-.5.2-.8.1-1.2.1z" fill="#91293b" opacity=".3"/></svg>